<?xml version="1.0" encoding="utf-8"?>
<!-- Generator: Adobe Illustrator 25.4.1, SVG Export Plug-In . SVG Version: 6.00 Build 0)  -->
<svg version="1.1" id="bold" xmlns="http://www.w3.org/2000/svg" xmlns:xlink="http://www.w3.org/1999/xlink" x="0px" y="0px"
	 viewBox="0 0 512 512" style="enable-background:new 0 0 512 512;" xml:space="preserve">
<style type="text/css">
	.st0{fill:#FFFFFF;}
</style>
<path class="st0" d="M58.7,0C26.3,0,0,26.3,0,58.7v186.7h245.3V0H58.7z M154.7,144h-21.3v21.3c0,8.8-7.2,16-16,16s-16-7.2-16-16V144
	H80c-8.8,0-16-7.2-16-16s7.2-16,16-16h21.3V90.7c0-8.8,7.2-16,16-16s16,7.2,16,16V112h21.3c8.8,0,16,7.2,16,16S163.5,144,154.7,144z
	"/>
<path class="st0" d="M0,266.7v186.7C0,485.7,26.3,512,58.7,512h186.7V266.7H0z M160.6,404.7c6.3,6.3,6.3,16.4,0,22.6
	c-3.1,3.1-7.2,4.7-11.3,4.7s-8.2-1.6-11.3-4.7l-15.4-15.4l-15.4,15.4c-3.1,3.1-7.2,4.7-11.3,4.7c-4.1,0-8.2-1.6-11.3-4.7
	c-6.3-6.3-6.3-16.4,0-22.6l15.4-15.4L84.7,374c-6.3-6.3-6.3-16.4,0-22.6s16.4-6.3,22.6,0l15.4,15.4l15.4-15.4
	c6.3-6.3,16.4-6.3,22.6,0c6.3,6.3,6.3,16.4,0,22.6l-15.4,15.4L160.6,404.7z"/>
<path class="st0" d="M453.3,0H266.7v245.3H512V58.7C512,26.3,485.7,0,453.3,0z M442.7,138.7h-96c-8.8,0-16-7.2-16-16s7.2-16,16-16
	h96c8.8,0,16,7.2,16,16S451.5,138.7,442.7,138.7z"/>
<path class="st0" d="M266.7,266.7V512h186.7c32.4,0,58.7-26.3,58.7-58.7V266.7H266.7z M437.3,437.3h-96c-8.8,0-16-7.2-16-16
	s7.2-16,16-16h96c8.8,0,16,7.2,16,16S446.2,437.3,437.3,437.3z M437.3,373.3h-96c-8.8,0-16-7.2-16-16s7.2-16,16-16h96
	c8.8,0,16,7.2,16,16S446.2,373.3,437.3,373.3z"/>
</svg>
