<?xml version="1.0" encoding="utf-8"?>
<!-- Generator: Adobe Illustrator 25.4.1, SVG Export Plug-In . SVG Version: 6.00 Build 0)  -->
<svg version="1.1" id="Outline" xmlns="http://www.w3.org/2000/svg" xmlns:xlink="http://www.w3.org/1999/xlink" x="0px" y="0px"
	 viewBox="0 0 512 512" style="enable-background:new 0 0 512 512;" xml:space="preserve">
<style type="text/css">
	.st0{fill:#68981B;stroke:#000000;stroke-miterlimit:10;}
</style>
<path class="st0" d="M272,80h16v16c0,4.4,3.6,8,8,8s8-3.6,8-8V80h16c4.4,0,8-3.6,8-8s-3.6-8-8-8h-16V48c0-4.4-3.6-8-8-8s-8,3.6-8,8
	v16h-16c-4.4,0-8,3.6-8,8S267.6,80,272,80z"/>
<path class="st0" d="M328,152c-4.4,0-8,3.6-8,8s3.6,8,8,8h16v16c0,4.4,3.6,8,8,8s8-3.6,8-8v-16h16c4.4,0,8-3.6,8-8s-3.6-8-8-8h-16
	v-16c0-4.4-3.6-8-8-8s-8,3.6-8,8v16H328z"/>
<path class="st0" d="M424,288h-72c-4.4,0-8,3.6-8,8v64c0,4.4,3.6,8,8,8h72c4.4,0,8-3.6,8-8v-64C432,291.6,428.4,288,424,288z
	 M416,304v16h-56v-16H416z M360,352v-16h56v16H360z"/>
<path class="st0" d="M176,328h-32c-2.5,0-4.9,1.2-6.4,3.2l-24,32c-2.7,3.5-1.9,8.5,1.6,11.2c1.4,1,3.1,1.6,4.8,1.6h56
	c4.4,0,8-3.6,8-8v-32C184,331.6,180.4,328,176,328z M168,360h-32l12-16h20V360z"/>
<path class="st0" d="M434.8,143c25.8,0,49.5-14.5,60.4-36.8c1.9-4,0.3-8.8-3.7-10.7c-1.5-0.8-3.3-1-5-0.7c-3.2,0.6-6.5,0.9-9.8,0.9
	c-28,0-50.8-21.8-50.8-48.6c0-6.8,1.5-13.6,4.4-19.8c1.9-4,0.1-8.8-3.9-10.6c-1.5-0.7-3.2-0.9-4.9-0.6c-31.1,6-53.6,32.4-53.6,62.8
	C368,114.3,397.9,143,434.8,143z M410.9,36.5c-0.6,3.5-0.9,7-0.9,10.6c0,34.1,27.4,62.1,62.1,64.4c-9.9,9.9-23.3,15.5-37.3,15.5
	c-28,0-50.8-21.6-50.8-48.1C384,60.9,394.7,44.7,410.9,36.5z"/>
<path class="st0" d="M408,240H241.6l-10.7-16H256c4.4,0,8-3.6,8-8c0-1.2-0.3-2.5-0.8-3.6L220.9,128H240c4.4,0,8-3.6,8-8
	c0-1.4-0.4-2.8-1.1-4l-56-96c-2.2-3.8-7.1-5.1-10.9-2.9c-1.2,0.7-2.2,1.7-2.9,2.9l-34.4,59l-15.8-27c-2.2-3.8-7.1-5.1-10.9-2.9
	c-1.2,0.7-2.2,1.7-2.9,2.9l-56,96c-2.2,3.8-0.9,8.7,2.9,10.9c1.2,0.7,2.6,1.1,4,1.1h19.1l-42.2,84.4c-2,4-0.4,8.8,3.6,10.7
	c1.1,0.6,2.3,0.8,3.6,0.8h24v1.6l-54.7,82c-2.5,3.7-1.5,8.6,2.2,11.1c1.3,0.9,2.9,1.3,4.4,1.3h55.4l-21.6,27c-1.1,1.4-1.8,3.2-1.8,5
	v56c0,4.4,3.6,8,8,8h56.8c-4.4,21.6,9.6,42.8,31.2,47.2s42.8-9.6,47.2-31.2c1.1-5.3,1.1-10.7,0-16h129.6
	c-4.4,21.6,9.6,42.8,31.2,47.2c21.6,4.4,42.8-9.6,47.2-31.2c1.1-5.3,1.1-10.7,0-16H464c3.5,0,6.6-2.3,7.7-5.7
	c1-3.3,24.3-81.5,24.3-114.3C496,279.4,456.6,240,408,240C408,240,408,240,408,240z M184,39.9l42.1,72.1H208c-4.4,0-8,3.6-8,8
	c0,1.2,0.3,2.5,0.8,3.6l42.2,84.4H216c-4.4,0-8,3.6-8,8c0,1.6,0.5,3.1,1.3,4.4l13,19.6h-25.4l-40-80H176c4.4,0,8-3.6,8-8
	c0-1.4-0.4-2.8-1.1-4l-31-53.1L184,39.9z M103.2,155.6c2-4,0.4-8.8-3.6-10.7c-1.1-0.6-2.3-0.8-3.6-0.8H77.9L120,71.9l42.1,72.1H144
	c-4.4,0-8,3.6-8,8c0,1.2,0.3,2.5,0.8,3.6l42.2,84.4H60.9L103.2,155.6z M38.9,336L72,286.4V304c0,4.4,3.6,8,8,8h31.4l-19.2,24H38.9z
	 M160,480c-13.3,0-24-10.7-24-24s10.7-24,24-24s24,10.7,24,24C184,469.2,173.2,480,160,480z M160,416c-12.6,0-24.5,5.9-32,16v0H72
	v-45.2l59.8-74.8H200v120h-8C184.4,421.9,172.6,416,160,416z M368,480c-13.3,0-24-10.7-24-24s10.7-24,24-24s24,10.7,24,24
	C392,469.2,381.2,480,368,480z M458,432h-58c-13.2-17.7-38.3-21.3-55.9-8c-3.1,2.3-5.8,5-8,8v0H216v-32h17.4
	c3.4,9.6,12.5,16,22.6,16h32c10.2,0,19.2-6.4,22.6-16h156.1C463.2,413.6,459.9,425.4,458,432z M248,336h48v56c0,4.4-3.6,8-8,8h-32
	c-4.4,0-8-3.6-8-8V336z M296,320h-48v-24c0-4.4,3.6-8,8-8h32c4.4,0,8,3.6,8,8V320z M470.7,384H312v-88c0-13.2-10.8-24-24-24h-32
	c-13.2,0-24,10.8-24,24v88h-16v-80c0-4.4-3.6-8-8-8H88v-40h320c39.8,0,72,32.2,72,72c0,0,0,0,0,0C480,341.1,475.7,363.1,470.7,384z"
	/>
</svg>
