<?xml version="1.0" encoding="utf-8"?>
<!-- Generator: Adobe Illustrator 25.4.1, SVG Export Plug-In . SVG Version: 6.00 Build 0)  -->
<svg version="1.1" id="Capa_1" xmlns="http://www.w3.org/2000/svg" xmlns:xlink="http://www.w3.org/1999/xlink" x="0px" y="0px"
	 viewBox="0 0 512 512" style="enable-background:new 0 0 512 512;" xml:space="preserve">
<style type="text/css">
	.st0{fill:#68981B;}
</style>
<g>
	<path class="st0" d="M88,416c12.2,0,24-2.6,35-7.7V492H43c-5.5,0-10,4.5-10,10s4.5,10,10,10h426c5.5,0,10-4.5,10-10s-4.5-10-10-10
		h-80v-83.7c11,5.1,22.8,7.7,35,7.7c47.7,0,88-38.9,88-85c0-36.7-26.7-70.4-63.3-81.3c-2.1-23.1-15.7-43.8-35.9-55
		c4.1-11.1,6.2-22.7,6.2-34.7c0-8.2-1-16.4-3-24.4c-1.4-5.4-6.8-8.6-12.1-7.3c-5.4,1.3-8.6,6.8-7.3,12.1c1.6,6.3,2.4,12.9,2.4,19.5
		c0,9.6-1.7,18.8-4.9,27.6c-4.9-1.1-10-1.6-15.1-1.6c-36.5,0-66.5,28-69.7,63.7c-17.2,5.1-32.2,15.3-43.3,28.4v-81.8l57.3-27.3
		c5-2.4,7.1-8.3,4.7-13.3c-2.4-5-8.3-7.1-13.3-4.7L266,174.2V100c0-5.5-4.5-10-10-10s-10,4.5-10,10v44.2L197.3,121
		c-5-2.4-11-0.3-13.3,4.7c-2.4,5-0.3,11,4.7,13.3l57.3,27.3v111.8c-11.1-13.1-26.1-23.3-43.3-28.4C199.5,214,169.5,186,133,186
		c-5.1,0-10.2,0.6-15.1,1.6c-3.3-8.8-4.9-18.1-4.9-27.6c0-39.6,28.5-72.7,67.9-78.7c4.2-0.6,7.6-3.9,8.3-8.1
		C194.7,43.4,224,20,256,20s61.3,23.4,66.8,53.2c0.8,4.2,4.1,7.4,8.3,8.1c4.1,0.6,8.2,1.6,12.1,2.8c5.3,1.7,10.9-1.2,12.6-6.5
		c1.7-5.3-1.3-10.9-6.5-12.6c-2.7-0.9-5.5-1.6-8.4-2.3C330.8,26.5,295.5,0,256,0s-74.8,26.5-84.9,62.8C125.9,72.9,93,112.9,93,160
		c0,12,2.1,23.7,6.2,34.7c-20.2,11.2-33.8,31.8-35.9,55C26.7,260.6,0,294.3,0,331C0,377.1,40.3,416,88,416L88,416z M143,408.3
		c11,5.1,22.8,7.7,35,7.7c27,0,51.7-12.5,68-31.8V492H143V408.3z M266,492V384.2c16.3,19.2,41,31.8,68,31.8c12.2,0,24-2.6,35-7.7
		V492H266z M321.1,267.3c4.8-1,8.8-5.5,7.9-11.8c0.2-27.4,22.6-49.6,50-49.6c27.6,0,49.8,22.4,50,49.6c-0.9,6.3,3,10.8,7.9,11.8
		C468.3,273.6,492,301,492,331c0,35.2-31.1,65-68,65c-12.4,0-24.4-3.6-35-10.5v-33.3l54.5-27.2c4.9-2.5,6.9-8.5,4.5-13.4
		c-2.5-4.9-8.5-6.9-13.4-4.5L389,329.8c0-8.4,0-61,0-73.8c0-5.5-4.5-10-10-10s-10,4.5-10,10v35.9l-12.9-12.9
		c-3.9-3.9-10.2-3.9-14.1,0c-3.9,3.9-3.9,10.2,0,14.1l27.1,27.1v65.3c-10.6,6.9-22.6,10.5-35,10.5c-36.9,0-68-29.8-68-65
		C266,301,289.7,273.6,321.1,267.3z M75.1,267.3c4.8-1,8.8-5.4,7.9-11.8c0.2-27.2,22.4-49.6,50-49.6c27.4,0,49.8,22.2,50,49.6
		c-0.9,6.3,3,10.8,7.9,11.8C222.3,273.6,246,301,246,331c0,35.2-31.1,65-68,65c-12.4,0-24.4-3.6-35-10.5v-5.3l27.1-27.1
		c3.9-3.9,3.9-10.2,0-14.1c-3.9-3.9-10.2-3.9-14.1,0L143,351.9V286c0-5.5-4.5-10-10-10s-10,4.5-10,10v43.8l-45.5-22.8
		c-4.9-2.5-10.9-0.5-13.4,4.5s-0.5,10.9,4.5,13.4l54.5,27.2v33.3c-10.6,6.9-22.6,10.5-35,10.5c-36.9,0-68-29.8-68-65
		C20,301,43.7,273.6,75.1,267.3L75.1,267.3z"/>
	<circle class="st0" cx="384" cy="99" r="10"/>
</g>
</svg>
