<svg id="Layer_1" data-name="Layer 1" xmlns="http://www.w3.org/2000/svg" xmlns:xlink="http://www.w3.org/1999/xlink" viewBox="0 0 402.66 136.13"><defs><style>.cls-1{fill:none;}.cls-2{clip-path:url(#clip-path);}.cls-3{fill:url(#radial-gradient);}.cls-4{clip-path:url(#clip-path-2);}.cls-5{fill:#af222f;}.cls-6{clip-path:url(#clip-path-3);}.cls-7{fill:#ac242d;}.cls-8{clip-path:url(#clip-path-5);}</style><clipPath id="clip-path" transform="translate(-17.04 -14.63)"><path class="cls-1" d="M26,81.75A64.66,64.66,0,1,0,90.69,17.09,64.66,64.66,0,0,0,26,81.75"/></clipPath><radialGradient id="radial-gradient" cx="0" cy="183.05" r="1" gradientTransform="matrix(81.01, 0, 0, -81.01, 60.89, 14873.13)" gradientUnits="userSpaceOnUse"><stop offset="0" stop-color="#fff"/><stop offset="0.04" stop-color="#fffef9"/><stop offset="0.1" stop-color="#fffbe9"/><stop offset="0.17" stop-color="#fff7cd"/><stop offset="0.24" stop-color="#fff1a7"/><stop offset="0.31" stop-color="#fee976"/><stop offset="0.39" stop-color="#fedf3b"/><stop offset="0.39" stop-color="#fedf39"/><stop offset="0.51" stop-color="#fede37"/><stop offset="1" stop-color="#fedb32"/></radialGradient><clipPath id="clip-path-2" transform="translate(-17.04 -14.63)"><rect class="cls-1" width="441.21" height="183.05"/></clipPath><clipPath id="clip-path-3" transform="translate(-17.04 -14.63)"><path class="cls-1" d="M84.76,89.22,97.7,47l15.79,56.13q-12-13.9-28.73-13.89m.64-55.17v1.4q4.45,1.3,4.45,6.46A18,18,0,0,1,89,47.07L64.16,129.63Q59,146.76,51.39,147.73v1.83H80.18v-1.83c-5.21,0-7.83-3.27-7.83-9.81.33-2.21.58-3.89.77-5.06.37-2.57.6-4,.7-4.29l9-30.78q16.32,0,28,13,10.52,11.82,10.51,25.1a17.51,17.51,0,0,1-1.44,7.61,8.33,8.33,0,0,1-5.33,4.2v1.83h32v-1.83q-3,0-5.57-4.29a27.63,27.63,0,0,1-2.61-6.64L113.42,47.42l-1.11-5.51q.42-5.16,4.36-6.46v-1.4Z"/></clipPath><clipPath id="clip-path-5" transform="translate(-17.04 -14.63)"><path class="cls-1" d="M162.13,94.89c0-3.07.72-5.2,2.22-6.36.89-.72,2.78-1.39,5.66-2l2.8-.57c4.6-.93,7.28.49,8,4.2a11.64,11.64,0,0,1,.25,2.15c0,7.1-6.28,14.13-18.88,20.86l0-18.29m16.26-14.53q-14.94,3-29.71,6.87V88c3.26-.87,4.89,2.2,4.9,9.12q0,20.3,0,40.6c0,3.53-.43,6.07-1.3,7.57a6,6,0,0,1-3.63,2.55c0,.33,0,.65,0,1q9.22-.6,18.48-1.12v-1q-5-.68-5-9.11,0-9.94,0-19.9c2.92-1.74,5.86-3.48,8.79-5.26,2.75,4.62,5.51,9.38,8.26,14.23,3.1,5.47,4.68,10.52,4.7,15q0,4.22-2.69,4.33V147q8.17-.4,16.34-.73c0-.36,0-.73,0-1.08-1.65-.29-3.13-2.18-4.46-5.64-.35-.92-1.08-3.11-2.21-6.57a132.34,132.34,0,0,0-4.64-12.4,66.86,66.86,0,0,0-7.71-13.3A33.65,33.65,0,0,0,186,99.4,20.53,20.53,0,0,0,189.44,88c0-5.31-2.5-8-7.42-8a18.35,18.35,0,0,0-3.63.4m192.55,19,.58.29q3.23-9.12,8.55-11.89c2.76-1.41,6.35-1.66,10.78-.71,1,.3,2,.59,3,.9,1.83.5,3.13.85,3.89,1-9.93,17.47-20,36.84-30,57.51q16.83.73,33.58,1.75c1.61.1,2.69.57,3.17,1.41q3.68-11.3,7.31-22.08c-.21-.08-.41-.19-.62-.27A26.2,26.2,0,0,1,401.77,139a22.06,22.06,0,0,1-13.95,4.14c-.7,0-1.4-.11-2.13-.21l-5.86-1.05C390,122,400,103.62,410,87.34q-15.36-4-30.85-7.12h-1A5.1,5.1,0,0,1,375,77.91q-2,10.65-4,21.49M231.6,72.56v.88a5.16,5.16,0,0,1,3.86,2.26q1.47,2.42,1.48,8.92,0,7.59.05,15.17C231,93,224.91,86.36,218.87,80c-1.46-1.53-2.22-2.68-2.31-3.46a1.87,1.87,0,0,1,1.83-1.68V74q-10.24,1.23-20.45,2.86c0,.28,0,.56,0,.84A5,5,0,0,1,202.17,81a21.89,21.89,0,0,1,.85,7q.1,23.43.19,46.85a18.14,18.14,0,0,1-.87,6.67,5.9,5.9,0,0,1-4.12,3.55c0,.35,0,.71,0,1.06,5-.21,10.06-.39,15.07-.56v-1.06q-5.09.15-5.13-10-.1-25.32-.2-50.61c8.19,8.18,16.4,16.91,24.61,26a26,26,0,0,1,3.43,4.33q1,2.24,1,8c0,3.74,0,7.47,0,11.22,0,6.41-1.74,10-5.26,10.57v1.11q7.62-.19,15.26-.31v-1.11q-5-.65-5-10.38L242,83.62c0-4.28.51-7.27,1.57-9a6.65,6.65,0,0,1,3.36-2.38v-.89q-7.68.48-15.32,1.19m90.2,19.87.66.44q2.64-8.59,7.28-11.51c2.63-1.66,6.31-2.23,11-1.7q-.11,27.21-.21,54.45a23.84,23.84,0,0,1-.77,7.07,4,4,0,0,1-4.17,3v1.13c6.22.18,12.43.37,18.64.61v-1.09a4,4,0,0,1-3.36-1.74c-1.05-1.59-1.57-4.68-1.55-9.24q.12-26.59.2-53.16c9.73,1.29,15.72,7.07,18.09,16.75l.73-.26Q366.5,86.7,364.65,76a2.65,2.65,0,0,1-1.36,1,9.87,9.87,0,0,1-2,.13,2.89,2.89,0,0,0-1.16-.38q-15.24-2.44-30.56-4a2.23,2.23,0,0,0-.95.12c-1.61-.42-2.58-1.11-2.88-2.09q-2,10.74-3.94,21.55m-21-20.72c2.22.5,3.72,2.24,4.44,5.18a38.7,38.7,0,0,1,.65,8.68q0,22.65-.08,45.35a33.32,33.32,0,0,1-.68,8.19,5.79,5.79,0,0,1-4.45,4.4v1.18q9.33.09,18.65.28c0-.38,0-.78,0-1.16q-5-.7-4.94-11.57.07-24.95.13-49.9A17.57,17.57,0,0,1,315.61,76a5.11,5.11,0,0,1,3.94-3.15V72q-9.37-.73-18.74-1.15ZM286.9,70.63a1.93,1.93,0,0,0-1-.23q-16.83-.23-33.66.66v1A5.18,5.18,0,0,1,256.47,76a32.16,32.16,0,0,1,.78,8.57q.06,23.27.09,46.55c0,8.31-1.64,12.47-4.94,12.53v1.14q16-.23,32-.17l4.09-.21a3.45,3.45,0,0,1,3,1.87q3.24-14.06,6.52-28.06l-.71-.25q-7.47,21.28-22.38,21.33c-3.94,0-6.55-.9-7.83-2.76-.71-1-1.05-2.91-1.06-5.6l0-34.08c6.17-.12,10.21.46,12.12,1.62q3.81,2.3,5.57,11.47c.24-.15.48-.29.71-.45-1.08-8.38-2.14-16.79-3.21-25.18l-.63.45c0,3.6-1.36,5.8-4.08,6.63a48.52,48.52,0,0,1-7.19.36,8.24,8.24,0,0,0-1.69-.21l-1.6,0c0-2.46,0-4.91,0-7.36q0-4.28.9-6c.89-1.78,2.87-2.71,5.93-2.74a19,19,0,0,1,12.31,4.27A22.35,22.35,0,0,1,292.72,92c.2-.08.42-.14.63-.22-1.17-7.55-2.32-15.11-3.5-22.67a5.15,5.15,0,0,1-3,1.51"/></clipPath></defs><g class="cls-2"><rect class="cls-3" x="8.99" y="2.46" width="129.31" height="129.33"/></g><g class="cls-4"><path class="cls-5" d="M110.74,110.82q-11.64-13-28-13l-9,30.78c-.1.29-.33,1.72-.7,4.29-.19,1.17-.44,2.85-.77,5.06,0,6.54,2.62,9.81,7.83,9.81v1.83H51.39v-1.83q7.62-1,12.77-18.1L89,47.07a17.65,17.65,0,0,0,.84-5.16q0-5.16-4.45-6.46v-1.4h31.27v1.4q-3.94,1.3-4.36,6.46l1.11,5.51,24.93,89.38a27.63,27.63,0,0,0,2.61,6.64q2.53,4.29,5.57,4.29v1.83h-32v-1.83a8.31,8.31,0,0,0,5.33-4.21,17.45,17.45,0,0,0,1.44-7.61q0-13.27-10.52-25.09m-26-21.6q16.69,0,28.73,13.89L97.7,47Z" transform="translate(-17.04 -14.63)"/></g><g class="cls-6"><rect class="cls-7" width="402.66" height="136.13"/></g><g class="cls-4"><path class="cls-5" d="M387.82,143.14A22.06,22.06,0,0,0,401.77,139a26.2,26.2,0,0,0,9.38-11.67c.21.08.41.18.62.27q-3.64,10.77-7.31,22.08c-.48-.84-1.56-1.31-3.17-1.41-11.19-.67-22.36-1.26-33.58-1.75,10.07-20.67,20.11-40,30-57.51-.76-.17-2.06-.52-3.89-1-1-.31-2-.6-3-.9-4.43-1-8-.7-10.78.71q-5.32,2.78-8.54,11.89l-.59-.29q2-10.83,4-21.49a5.1,5.1,0,0,0,3.18,2.31h1q15.5,3.07,30.85,7.12C400,103.63,390,122,379.83,141.88l5.86,1.05c.73.1,1.43.18,2.13.21M367.61,97.49c-2.37-9.68-8.36-15.46-18.09-16.75q-.11,26.58-.2,53.16c0,4.56.49,7.65,1.55,9.24a4,4,0,0,0,3.36,1.74V146c-6.21-.24-12.42-.43-18.64-.61v-1.13a4,4,0,0,0,4.17-3,23.84,23.84,0,0,0,.77-7.07q.12-27.23.21-54.45c-4.69-.53-8.37,0-11,1.7q-4.64,2.91-7.28,11.5l-.66-.43q2-10.83,3.94-21.55c.3,1,1.27,1.67,2.88,2.09a2.23,2.23,0,0,1,.95-.12q15.31,1.5,30.56,4a3,3,0,0,1,1.16.38,9.87,9.87,0,0,0,2-.13,2.65,2.65,0,0,0,1.36-1q1.83,10.68,3.69,21.21l-.73.26M319.55,72.83A5.11,5.11,0,0,0,315.61,76a17.57,17.57,0,0,0-1.07,6.36q-.07,25-.13,49.9,0,10.88,4.94,11.57c0,.38,0,.78,0,1.16q-9.31-.18-18.65-.28v-1.18a5.79,5.79,0,0,0,4.45-4.41,32.67,32.67,0,0,0,.68-8.18q0-22.68.08-45.36a38.66,38.66,0,0,0-.65-8.67c-.72-2.94-2.22-4.68-4.44-5.18v-.9q9.38.41,18.74,1.15ZM267.06,136.5c1.28,1.86,3.89,2.77,7.83,2.76q14.91,0,22.38-21.33l.7.25q-3.27,14-6.51,28.06a3.45,3.45,0,0,0-3-1.87c-1.37.06-2.74.14-4.1.21q-16,0-32,.17V143.6c3.3,0,5-4.21,4.94-12.52q0-23.28-.09-46.55a32.16,32.16,0,0,0-.78-8.57A5.18,5.18,0,0,0,252.25,72v-1q16.81-.89,33.66-.66a2,2,0,0,1,1,.23,5.15,5.15,0,0,0,3-1.51c1.18,7.56,2.33,15.12,3.5,22.67-.21.08-.43.14-.63.22a22.35,22.35,0,0,0-7.63-12.32,19,19,0,0,0-12.31-4.27c-3.06,0-5,1-5.93,2.74-.6,1.18-.89,3.19-.89,6,0,2.44,0,4.9,0,7.36l1.6,0a8.24,8.24,0,0,1,1.69.21,48.52,48.52,0,0,0,7.19-.36c2.72-.83,4.08-3,4.08-6.63l.63-.45q1.6,12.59,3.21,25.18c-.23.16-.47.3-.71.45q-1.77-9.16-5.57-11.47c-1.91-1.16-5.95-1.74-12.12-1.62l0,34.08c0,2.69.35,4.56,1.06,5.6m-20,7.21v1.11q-7.64.12-15.26.31V144c3.52-.62,5.27-4.16,5.26-10.58,0-3.74,0-7.47,0-11.21s-.35-6.5-1-8a26,26,0,0,0-3.43-4.33c-8.21-9-16.42-17.78-24.61-26q.1,25.27.2,50.61,0,10.17,5.14,10v1.06c-5,.17-10.06.35-15.08.56,0-.36,0-.71,0-1.06a5.92,5.92,0,0,0,4.12-3.55,18.14,18.14,0,0,0,.87-6.67q-.09-23.41-.19-46.85a21.89,21.89,0,0,0-.85-7A5,5,0,0,0,198,77.67c0-.28,0-.56,0-.84q10.22-1.64,20.45-2.86v.87a1.87,1.87,0,0,0-1.83,1.68c.09.78.85,1.93,2.31,3.46,6,6.38,12.08,13,18.12,19.81q0-7.58-.05-15.17,0-6.51-1.48-8.92a5.16,5.16,0,0,0-3.86-2.26v-.88q7.65-.7,15.32-1.19v.89a6.65,6.65,0,0,0-3.36,2.38c-1.06,1.71-1.59,4.7-1.57,9l.12,49.71q0,9.73,5,10.38M181,92.32a12.45,12.45,0,0,0-.24-2.15c-.71-3.71-3.39-5.13-8-4.2l-2.8.57c-2.88.6-4.77,1.27-5.66,2-1.5,1.16-2.23,3.29-2.22,6.36l0,18.29c12.6-6.73,18.9-13.76,18.88-20.86m.2,54.62v-1.05q2.69-.12,2.69-4.33c0-4.43-1.6-9.48-4.7-15-2.75-4.85-5.51-9.61-8.26-14.23-2.93,1.78-5.87,3.52-8.79,5.26q0,10,0,19.9,0,8.43,5,9.11v1c-6.16.35-12.33.72-18.47,1.12,0-.32,0-.65,0-1a6,6,0,0,0,3.63-2.56c.87-1.49,1.3-4,1.3-7.56q0-20.29,0-40.61c0-6.91-1.64-10-4.9-9.11v-.75q14.77-3.89,29.71-6.87c7.33-1.48,11,1.15,11.05,7.64A20.53,20.53,0,0,1,186,99.4a33.65,33.65,0,0,1-7.41,7.83,66.86,66.86,0,0,1,7.71,13.3,131.29,131.29,0,0,1,4.64,12.4c1.13,3.46,1.86,5.65,2.21,6.57,1.33,3.46,2.81,5.35,4.46,5.64,0,.35,0,.72,0,1.08q-8.16.33-16.34.72" transform="translate(-17.04 -14.63)"/></g><g class="cls-8"><rect class="cls-7" width="402.66" height="136.13"/></g></svg>