<?xml version="1.0" encoding="utf-8"?>
<!-- Generator: Adobe Illustrator 25.4.1, SVG Export Plug-In . SVG Version: 6.00 Build 0)  -->
<svg version="1.1" id="Ebene_1" xmlns="http://www.w3.org/2000/svg" xmlns:xlink="http://www.w3.org/1999/xlink" x="0px" y="0px"
	 viewBox="0 0 512 512" style="enable-background:new 0 0 512 512;" xml:space="preserve">
<style type="text/css">
	.st0{fill:#68981B;}
</style>
<path class="st0" d="M512,192.4v-35.6c0-9.6-7.8-17.4-17.4-17.4c-6.2,0-11.9-2.4-16.3-6.7c-4.4-4.4-6.8-10.1-6.8-16.3V53.7
	c0-9.8-7.9-17.7-17.7-17.7h-21.3c-9.8,0-17.7,7.9-17.7,17.7v36.7c0,22.7-18.1,41.5-40.4,41.9c-11.1,0.2-21.6-4-29.5-11.8
	c-7.9-7.8-12.3-18.2-12.3-29.3V53.7c0-9.8-7.9-17.7-17.7-17.7h-21.3c-9.8,0-17.7,7.9-17.7,17.7v22.6c0,4.1,3.4,7.5,7.5,7.5
	c4.1,0,7.5-3.4,7.5-7.5V53.7c0-1.5,1.2-2.7,2.7-2.7h21.3c1.5,0,2.7,1.2,2.7,2.7v37.5c0,15.2,6,29.4,16.8,40s25.1,16.3,40.3,16.1
	c30.4-0.5,55.2-26.1,55.2-56.9V53.7c0-1.5,1.2-2.7,2.7-2.7h21.3c1.5,0,2.7,1.2,2.7,2.7v62.6c0,10.2,4,19.7,11.1,26.9
	c7.2,7.2,16.7,11.1,26.9,11.1c1.3,0,2.4,1.1,2.4,2.4v31l-123.3,59.2l-123.3-59.2v-31c0-0.8,0.4-1.4,0.7-1.7c0.3-0.3,0.8-0.7,1.7-0.7
	c21,0,38-17.1,38-38v-10c0-4.1-3.4-7.5-7.5-7.5c-4.1,0-7.5,3.4-7.5,7.5v10c0,12.7-10.3,23-23,23c-4.7,0-9.1,1.8-12.3,5.1
	c-3.3,3.3-5.1,7.7-5.1,12.3v35.5c0,0.2,0,0.3,0,0.5v124.6l-38.6,23.1c-5.4-3.1-11.7-4.8-18-4.8h-44.8V206.1h44.8
	c19.9,0,36.1-16.2,36.1-36.1S198.7,134,178.9,134H171v-8.2c0-16.2-13.2-29.4-29.4-29.4h-7.5V81.7c0-8.5-7-15.5-15.5-15.5H96.3
	c-8.5,0-15.5,7-15.5,15.5v14.7h-7.5c-16.2,0-29.4,13.2-29.4,29.4v8.2h-7.9c-3.3,0-6.6,0.4-9.7,1.3c-4,1.1-6.3,5.2-5.2,9.2
	c1.1,4,5.2,6.3,9.2,5.2c1.8-0.5,3.7-0.8,5.7-0.8h142.8c11.6,0,21.1,9.4,21.1,21.1c0,11.6-9.4,21-21.1,21H36.1
	c-11.6,0-21.1-9.4-21.1-21c0-1.2,0.1-2.4,0.3-3.6c0.7-4.1-2.1-8-6.1-8.6c-4.1-0.7-8,2.1-8.6,6.1c-0.3,2-0.5,4-0.5,6.1
	c0,19.9,16.2,36.1,36.1,36.1h44.8v129.6H36.1C16.2,335.7,0,351.9,0,371.7c0,9.6,3.7,18.7,10.6,25.5c6.8,6.8,15.9,10.6,25.5,10.6h7.9
	v8.2c0,16.2,13.2,29.4,29.4,29.4h7.5v14.7c0,8.5,7,15.5,15.5,15.5h22.3c8.5,0,15.5-7,15.5-15.5v-14.7h0.3c1.6,2,3.3,4,5.1,5.8
	c10.1,9.8,23.1,14.8,36.5,14.8h270.4c15.8,0,28.6-12.8,28.6-28.6V393h4c18.2,0,33-14.8,33-33V192.6C512,192.5,512,192.4,512,192.4z
	 M95.8,81.7c0-0.3,0.2-0.5,0.5-0.5h22.3c0.3,0,0.5,0.2,0.5,0.5v14.7H95.8V81.7z M58.9,134v-8.2c0-8,6.5-14.4,14.4-14.4h14.8h0.2h0.2
	h38h0.2h0.2h14.8c8,0,14.4,6.5,14.4,14.4v8.2H58.9z M314.5,300.4c3.4,0,6.4,2.1,7.5,5.3c8.7,24,31.7,40.2,57.3,40.2
	c26.1,0,49.3-16.6,57.7-41.3c0.8-2.5,3.2-4.1,5.8-4.1h4.7c6.9,0,12.6,5.7,12.6,12.6v94.5H356.2l-24.6-35.2c-2.4-3.4-7-4.2-10.4-1.9
	c-3.4,2.4-4.2,7-1.9,10.4l18.6,26.7h-18l-46.3-66.4l12.7-7.6l15.9,22.7c1.5,2.1,3.8,3.2,6.2,3.2c1.5,0,3-0.4,4.3-1.4
	c3.4-2.4,4.2-7,1.9-10.4l-16-22.9c4.2-4.8,6.7-11,6.7-17.6v-6.8H314.5z M284.1,407.5l-35.8-51.3l12.3-7.4l40.9,58.7H284.1z
	 M247.8,407.5l-25.1-35.9l12.7-7.6l30.4,43.5L247.8,407.5L247.8,407.5z M178.4,369c0.4,0.7,0.8,1.4,1.3,2c5,6.5,12.6,10,20.3,10
	c3.3,0,6.6-0.6,9.7-1.9l19.8,28.4h-90.2c1.8-10.5,8.2-20,17.5-25.6L178.4,369z M290.2,302v5.2c0,3.9-2.1,7.6-5.4,9.7
	c-0.1,0.1-0.3,0.2-0.4,0.2l-25.2,15.1c-0.1,0.1-0.3,0.2-0.4,0.2l-25,15c0,0-0.1,0.1-0.1,0.1l-28.3,17c-4.6,2.8-10.5,1.6-13.8-2.6
	c0-0.1-0.2-0.2-0.1-0.5c0-0.2,0.2-0.3,0.2-0.4l8.6-5.1c0.1-0.1,0.2-0.1,0.3-0.2l89.2-53.5C289.9,302.2,290.1,302.1,290.2,302z
	 M95.8,206.1h23.3v129.6H95.8V206.1z M58.9,416v-8.2h42.4c4.1,0,7.5-3.4,7.5-7.5c0-4.1-3.4-7.5-7.5-7.5H36.1
	c-5.6,0-10.9-2.2-14.9-6.2c-4-4-6.2-9.3-6.2-14.9c0-11.6,9.4-21.1,21.1-21.1h142.8c0.3,0,0.6,0,0.9,0l-30.6,18.4
	c-15.6,9.4-25.4,26.5-25.4,44.8c0,5,0.7,9.8,2,14.4c0,0.1,0,0.1,0.1,0.2c0,0,0,0.1,0,0.1c0.2,0.6,0.4,1.3,0.6,1.9H73.3
	C65.4,430.4,58.9,423.9,58.9,416z M119.1,460.1c0,0.3-0.2,0.5-0.5,0.5H96.3c-0.3,0-0.5-0.2-0.5-0.5v-14.7h23.3V460.1z M460,437.4
	c0,7.5-6.1,13.6-13.6,13.6c-173,0-270.6,0-271.4,0c-17.1-0.4-31.4-12.5-35.2-28.5h103.9c0.1,0,0.1,0,0.2,0s0.1,0,0.2,0H280
	c0.1,0,0.1,0,0.2,0s0.1,0,0.2,0h35.4c0.1,0,0.1,0,0.2,0c0.1,0,0.1,0,0.2,0h35.9c0.1,0,0.1,0,0.2,0s0.1,0,0.2,0H460V437.4z M479,378
	h-4v-65c0-15.2-12.4-27.6-27.6-27.6h-4.7c-9,0-17.1,5.7-20,14.3c-6.3,18.6-23.8,31.1-43.5,31.1c-19.3,0-36.6-12.2-43.2-30.3
	c-3.3-9.1-12-15.2-21.6-15.2c-16.7,0.4-23.1-1.6-32.4,3.9l-31.7,19v-104L370.4,262c1,0.5,2.1,0.7,3.2,0.7s2.2-0.2,3.2-0.7L497,204.4
	V360C497,369.9,488.9,378,479,378z"/>
<path class="st0" d="M365.9,168.1h-5c-4.1,0-7.5,3.4-7.5,7.5c0,4.1,3.4,7.5,7.5,7.5h1.6v25.9h-0.9c-4.1,0-7.5,3.4-7.5,7.5
	s3.4,7.5,7.5,7.5h16.8c4.1,0,7.5-3.4,7.5-7.5s-3.4-7.5-7.5-7.5h-0.9v-29.4C377.4,173.3,372.2,168.1,365.9,168.1z"/>
</svg>
