<?xml version="1.0" encoding="utf-8"?>
<!-- Generator: Adobe Illustrator 25.4.1, SVG Export Plug-In . SVG Version: 6.00 Build 0)  -->
<svg version="1.1" id="FLIPPERS" xmlns="http://www.w3.org/2000/svg" xmlns:xlink="http://www.w3.org/1999/xlink" x="0px" y="0px"
	 viewBox="0 0 512 512" style="enable-background:new 0 0 512 512;" xml:space="preserve">
<style type="text/css">
	.st0{fill:#68981B;}
</style>
<path class="st0" d="M486,256c4,0,6.8-3.2,7.2-6.8V162c0-4-3.2-6.8-7.2-7.2h-19.2l-8.4-57.2c-0.4-4-4-6.4-8-6l-108.4,16h-0.4
	L24.8,155.2c0,0-6,1.2-6,6.8v86.8c0,4,3.2,6.8,6.8,7.2c17.6,0,31.6,14,31.6,31.6s-14,31.6-31.6,31.6c-4,0-6.8,3.2-7.2,6.8v86.8
	c0,4,3.2,6.8,7.2,7.2h460c4,0,6.8-3.2,7.2-7.2v-86.4c0-4-3.2-6.8-6.8-7.2c-17.6,0-31.6-14-31.6-31.6S468.4,256,486,256L486,256z
	 M336.8,122.8l2.8,18.8c0.4,3.6,3.6,6,6.8,6h1.2c4-0.4,6.4-4,6-8l-2.8-18.8l94.8-14l7.2,48.4H120.4L336.8,122.8z M479.2,332.8v73.6
	H375.6v-19.2c0-4-3.2-7.2-7.2-7.2s-7.2,3.2-7.2,7.2v19.2h-328v-73.6c24.8-4,42-27.2,38-52c-3.2-19.6-18.4-35.2-38-38v-73.6h328.4
	V188c0,4,3.2,7.2,7.2,7.2s7.2-3.2,7.2-7.2v-19.2h103.6v73.6c-24.8,4-42,27.2-38,52C444,314.4,459.2,329.6,479.2,332.8z"/>
<path class="st0" d="M368.4,298.4c-4,0-6.8,3.2-7.2,6.8v46.4c0,4,3.2,7.2,7.2,7.2s7.2-3.2,7.2-7.2v-46
	C375.6,301.6,372.4,298.4,368.4,298.4L368.4,298.4z"/>
<path class="st0" d="M368.4,216.8c-4,0-6.8,3.2-7.2,6.8V270c0,4,3.2,7.2,7.2,7.2s7.2-3.2,7.2-7.2v-46.4
	C375.6,220,372.4,216.8,368.4,216.8z"/>
<path class="st0" d="M109.2,228H196c4,0,7.2-3.2,7.2-7.2S200,214,196,214h-86.8c-4,0-7.2,3.2-7.2,7.2S105.2,228,109.2,228z"/>
<path class="st0" d="M282.8,258.4H109.2c-4,0-7.2,3.2-7.2,7.2s3.2,7.2,7.2,7.2h173.6c4,0,7.2-3.2,7.2-7.2S286.8,258.4,282.8,258.4z"
	/>
<path class="st0" d="M282.8,302.8H109.2c-4,0-7.2,3.2-7.2,7.2s3.2,7.2,7.2,7.2h173.6c4,0,7.2-3.2,7.2-7.2S286.8,302.8,282.8,302.8z"
	/>
<path class="st0" d="M282.8,347.2H109.2c-4,0-7.2,3.2-7.2,7.2s3.2,7.2,7.2,7.2h173.6c4,0,7.2-3.2,7.2-7.2S286.8,347.2,282.8,347.2z"
	/>
</svg>
